<svg preserveAspectRatio="none" overflow="visible" style="display: block;" width="18" height="18" viewBox="0 0 18 18" fill="none" xmlns="http://www.w3.org/2000/svg">
<g id="Icon" clip-path="url(#clip0_0_17)">
<path id="Vector" d="M16.8609 14.0525L14.0103 11.2019L11.8177 10.296C12.5478 9.25783 12.9389 8.01922 12.9375 6.75C12.9375 3.33819 10.1618 0.5625 6.75 0.5625C3.33819 0.5625 0.5625 3.33819 0.5625 6.75C0.5625 10.1618 3.33819 12.9375 6.75 12.9375C8.03026 12.939 9.2791 12.5411 10.3225 11.7992L11.2261 13.986L14.0766 16.8367C14.2594 17.0195 14.4764 17.1646 14.7153 17.2635C14.9541 17.3625 15.2101 17.4134 15.4687 17.4134C15.7272 17.4134 15.9832 17.3625 16.2221 17.2636C16.461 17.1646 16.678 17.0196 16.8608 16.8368C17.0437 16.654 17.1887 16.437 17.2876 16.1981C17.3866 15.9592 17.4375 15.7032 17.4375 15.4447C17.4375 15.1861 17.3866 14.9301 17.2877 14.6912C17.1888 14.4524 17.0438 14.2353 16.8609 14.0525ZM1.6875 6.75C1.6875 3.95859 3.95859 1.6875 6.75 1.6875C9.54141 1.6875 11.8125 3.95859 11.8125 6.75C11.8125 9.54141 9.54141 11.8125 6.75 11.8125C3.95859 11.8125 1.6875 9.54141 1.6875 6.75ZM16.0654 16.0412C15.907 16.1992 15.6924 16.2879 15.4688 16.2879C15.2451 16.2879 15.0305 16.1992 14.8721 16.0412L12.1801 13.3493L11.3401 11.316L13.3734 12.156L16.0655 14.848C16.2234 15.0064 16.3121 15.2209 16.3121 15.4446C16.3121 15.6683 16.2234 15.8829 16.0654 16.0412Z" fill="#252B36" fill-opacity="0.682"/>
</g>
<defs>
<clipPath id="clip0_0_17">
<rect width="18" height="18" fill="white"/>
</clipPath>
</defs>
</svg>
